<svg version="1.1" id="Layer_1" xmlns="http://www.w3.org/2000/svg" xmlns:xlink="http://www.w3.org/1999/xlink" x="0px" y="0px"
	 width="100%" viewBox="0 0 500 500" enable-background="new 0 0 500 500" xml:space="preserve">
<path fill="#161F28" opacity="1.000000" stroke="none" 
	d="
M290.000000,501.000000 
	C193.333359,501.000000 97.166710,501.000000 1.000051,501.000000 
	C1.000034,334.333405 1.000034,167.666794 1.000017,1.000141 
	C167.666565,1.000094 334.333130,1.000094 500.999756,1.000047 
	C500.999847,167.666519 500.999847,334.333038 500.999939,500.999786 
	C430.833344,501.000000 360.666656,501.000000 290.000000,501.000000 
M251.561981,396.620514 
	C253.060822,396.616455 254.575302,396.470337 256.055756,396.633331 
	C261.971466,397.284668 266.950928,396.217316 272.046753,392.296783 
	C294.467255,375.047455 317.240662,358.253143 340.061035,341.532532 
	C342.641876,339.641541 346.318420,338.344025 349.499512,338.318085 
	C373.159454,338.125153 396.822571,338.357880 420.484772,338.378113 
	C428.072601,338.384583 429.948669,336.438385 429.938232,328.947876 
	C429.928009,321.616577 429.780792,314.285339 429.785339,306.954132 
	C429.828339,237.795883 429.895142,168.637650 429.941895,99.479393 
	C429.946838,92.135651 427.792816,90.000908 420.485718,89.999878 
	C381.656281,89.994385 342.826843,89.997223 303.997406,89.997192 
	C288.937592,89.997177 288.937561,89.997192 288.984711,104.894646 
	C289.007904,112.224449 290.776581,114.029663 298.061218,114.031677 
	C332.224457,114.041107 366.387695,114.036240 400.550934,114.036469 
	C402.297821,114.036484 404.044708,114.036469 405.598022,114.036469 
	C405.598022,181.381439 405.598022,247.950409 405.598022,314.827454 
	C385.420135,314.827454 365.607239,315.038025 345.803101,314.712860 
	C338.902344,314.599548 333.507812,316.041809 327.793457,320.578552 
	C309.162048,335.370544 289.816071,349.262817 270.730072,363.481232 
	C268.697662,364.995331 266.567230,366.377747 264.403595,367.875763 
	C264.403595,298.426971 264.403595,229.572754 264.403595,160.130234 
	C285.717529,174.240402 306.461761,188.055191 327.326111,201.686035 
	C330.040833,203.459564 330.989929,205.296021 330.973145,208.508926 
	C330.835541,234.838882 330.895599,261.169891 330.895660,287.500580 
	C330.895660,289.253510 330.895660,291.006439 330.895660,292.754242 
	C339.036682,292.754242 346.473755,292.754242 354.370758,292.754242 
	C354.370758,290.721100 354.370758,288.931488 354.370758,287.141876 
	C354.370789,259.977936 354.367828,232.813995 354.378174,205.650055 
	C354.378815,203.987701 354.150269,202.228073 354.600403,200.680038 
	C356.448029,194.325745 353.814148,190.442276 348.531433,187.012726 
	C321.473511,169.446747 294.596344,151.602585 267.580536,133.971283 
	C264.912537,132.230057 263.924377,130.392258 263.943817,127.166138 
	C264.095581,102.002907 263.846069,76.836243 264.138458,51.675503 
	C264.225830,44.157883 262.652374,37.819016 257.486969,32.149784 
	C253.271057,27.522663 250.637039,26.694609 245.654587,30.359402 
	C236.403381,37.163998 227.229034,44.073086 218.019882,50.934883 
	C202.272842,62.668079 186.576004,74.469727 170.743637,86.086655 
	C165.957397,89.598541 163.745239,93.578476 163.832825,99.872917 
	C164.210754,127.031601 163.994476,154.198547 163.994476,181.362488 
	C163.994476,183.133392 163.994476,184.904312 163.994476,186.997330 
	C158.780746,186.997330 154.142715,186.979279 149.504898,187.001450 
	C141.959091,187.037491 139.989395,188.973740 139.988037,196.388321 
	C139.981186,233.884567 139.984573,271.380798 139.984390,308.877045 
	C139.984375,310.785919 139.984390,312.694824 139.984390,314.511871 
	C124.918839,314.511871 110.662918,314.511871 96.295471,314.511871 
	C96.295471,247.287659 96.295471,180.379333 96.295471,113.036438 
	C108.511604,113.036438 120.469711,113.042259 132.427795,113.034279 
	C139.680130,113.029442 142.845413,110.004135 142.996872,102.966766 
	C143.213943,92.881081 140.838821,89.645103 132.708328,89.419174 
	C126.713501,89.252602 120.710449,89.379868 114.711060,89.379890 
	C104.045471,89.379929 93.378662,89.285187 82.714699,89.417664 
	C75.216545,89.510796 72.589172,92.233444 72.211105,99.727379 
	C72.135567,101.224525 72.058037,102.723953 72.059227,104.222260 
	C72.106560,163.881775 72.168983,223.541275 72.213669,283.200775 
	C72.224525,297.696747 72.032890,312.194641 72.215477,326.688110 
	C72.332115,335.946228 74.815590,338.165405 83.927284,338.168152 
	C119.252815,338.178680 154.578339,338.167603 189.903870,338.177826 
	C195.400055,338.179413 200.903641,338.444702 206.390366,338.235535 
	C212.189270,338.014496 214.001953,335.971649 214.004547,330.134857 
	C214.024597,285.139404 214.019775,240.143921 213.995560,195.148453 
	C213.992462,189.415405 211.623093,187.091599 205.741806,187.014771 
	C199.955154,186.939148 194.166718,186.998276 188.226486,186.998276 
	C188.100159,185.918137 187.962646,185.289490 187.962311,184.660797 
	C187.948746,158.496765 187.881195,132.332230 188.084641,106.169815 
	C188.099152,104.303299 189.686356,101.900833 191.264267,100.683159 
	C201.935165,92.448410 212.795120,84.458389 223.605560,76.404816 
	C228.852646,72.495834 234.124878,68.620598 240.200989,64.127182 
	C240.200989,67.226486 240.200989,69.179520 240.200989,71.132553 
	C240.201004,176.122025 240.199905,281.111511 240.203064,386.100983 
	C240.203339,394.986481 241.672852,396.448486 251.561981,396.620514 
M194.356979,436.151886 
	C196.124832,436.151886 197.892685,436.151886 200.381195,436.151886 
	C199.908386,442.210815 199.490799,447.562042 199.084595,452.767273 
	C201.932373,452.767273 205.987183,452.767273 210.250275,452.767273 
	C207.024719,449.177887 206.754654,421.227081 209.724243,417.091492 
	C205.706345,417.091492 201.722458,417.091492 199.061935,417.091492 
	C199.472504,422.580261 199.883209,428.070526 200.306992,433.735748 
	C194.146042,433.735748 188.884384,433.735748 183.090408,433.735748 
	C183.381058,428.095825 183.657196,422.737396 183.939621,417.257263 
	C180.959625,417.257263 177.293457,417.257263 174.596420,417.257263 
	C176.189011,429.285553 176.174133,441.063416 174.774719,452.780975 
	C177.453827,452.780975 181.077332,452.780975 184.001205,452.780975 
	C184.001205,447.246948 184.001205,441.941254 184.001205,436.151855 
	C187.137955,436.151855 190.270691,436.151855 194.356979,436.151886 
M412.160889,453.494415 
	C415.783752,453.320465 419.498871,453.597107 423.010101,452.878021 
	C430.141205,451.417694 435.028229,445.906250 436.129669,438.923615 
	C438.482117,424.010071 427.575104,413.879822 412.056519,416.564819 
	C401.893799,418.323212 396.169891,424.674286 395.986969,434.395203 
	C395.793396,444.681976 400.949524,451.035706 412.160889,453.494415 
M463.854370,448.651978 
	C467.514435,453.281311 472.436066,453.172913 477.542084,452.872131 
	C473.208221,447.159729 469.143677,441.802307 465.069916,436.432739 
	C470.484161,433.638214 472.731689,429.813599 471.855560,424.955872 
	C471.048370,420.480377 467.324371,417.382050 461.618713,417.122162 
	C455.688904,416.852020 449.737244,417.061951 443.611023,417.061951 
	C446.789490,421.082733 447.017273,448.520203 444.111542,452.839752 
	C447.873810,452.839752 451.653229,452.839752 454.647980,452.839752 
	C454.647980,441.719910 454.647980,430.731415 454.647980,419.370667 
	C458.384979,419.095245 461.977783,419.252899 463.233093,424.194794 
	C464.656219,429.797333 462.636383,433.178741 456.797974,435.394714 
	C458.984985,439.583130 461.199524,443.824310 463.854370,448.651978 
M220.986801,440.448364 
	C220.666458,444.603363 220.346130,448.758362 220.030304,452.854736 
	C222.864975,452.854736 226.652283,452.854736 230.519455,452.854736 
	C228.615402,449.118103 228.052322,425.358490 229.664215,419.392487 
	C234.107834,418.941162 237.589890,419.867218 238.442566,425.083527 
	C239.329666,430.510437 237.428055,433.355225 231.780075,435.307312 
	C233.547501,438.755493 235.338181,442.272705 237.150116,445.778961 
	C240.446716,452.158081 245.582245,454.282166 252.137146,452.322693 
	C248.191574,447.120422 244.144653,441.784576 240.079361,436.424469 
	C245.505646,433.608215 247.755219,429.712616 246.841782,424.877350 
	C245.999847,420.420563 242.271896,417.369080 236.556335,417.116486 
	C230.649139,416.855438 224.721436,417.058441 219.146988,417.058441 
	C222.713257,424.399170 220.218613,432.091675 220.986801,440.448364 
M45.745407,450.694580 
	C43.301472,450.694580 40.857536,450.694580 38.277573,450.694580 
	C38.277573,445.743500 38.277573,441.199219 38.277573,435.664642 
	C42.432327,436.596466 46.050751,437.408020 49.417587,438.163147 
	C49.417587,436.349945 49.417587,433.812653 49.417587,432.535553 
	C45.823929,433.204712 42.202984,433.878967 38.307060,434.604431 
	C38.307060,428.891449 38.307060,424.185394 38.307060,418.508911 
	C43.234417,419.397644 47.630440,420.190521 51.761978,420.935699 
	C51.761978,420.132874 51.761978,418.365021 51.761978,416.850708 
	C43.614468,416.850708 35.732105,416.850708 27.457850,416.850708 
	C30.906631,420.931183 31.050697,448.583649 28.027431,452.880890 
	C36.181484,452.880890 44.322250,452.880890 52.775814,452.880890 
	C53.266842,450.690582 53.742168,448.570282 54.260258,446.259277 
	C51.352535,447.875763 48.956440,449.207855 45.745407,450.694580 
M260.195618,448.736176 
	C259.559143,450.113037 258.922668,451.489899 258.314209,452.806213 
	C266.281860,452.806213 274.552582,452.806213 283.191589,452.806213 
	C283.512421,450.646637 283.810242,448.642242 283.929138,447.842010 
	C278.940430,449.124878 273.948090,450.408661 268.412842,451.832062 
	C268.412842,445.790710 268.412842,441.253326 268.412842,436.151642 
	C272.125031,436.499451 275.451385,436.811127 279.040680,437.147430 
	C278.930115,435.859680 278.812592,434.490570 278.737244,433.613190 
	C275.047821,433.807404 271.817902,433.977417 268.433411,434.155579 
	C268.433411,428.916443 268.433411,424.209473 268.433411,419.080933 
	C273.332672,419.831604 278.530609,417.214447 281.995361,423.159637 
	C281.995361,420.516785 281.995361,418.572571 281.995361,416.890411 
	C273.815460,416.890411 265.894012,416.890411 257.550537,416.890411 
	C258.609100,418.033600 259.824280,418.731384 259.841522,419.457581 
	C260.066284,428.934723 260.121460,438.415924 260.195618,448.736176 
M300.257935,428.705719 
	C296.175995,436.695038 294.191101,445.767853 288.298370,452.819946 
	C290.485046,452.819946 293.070038,452.819946 294.511902,452.819946 
	C295.676849,449.428253 295.942719,444.683533 297.906738,443.825409 
	C301.222168,442.376862 306.068146,442.339264 309.377319,443.771698 
	C311.289215,444.599304 311.451782,449.468201 312.453186,452.683716 
	C315.518433,452.683716 319.535553,452.683716 322.974670,452.683716 
	C317.375244,440.565369 311.802795,428.505432 305.948517,415.835632 
	C303.920105,420.492493 302.275482,424.268219 300.257935,428.705719 
M159.627518,436.809967 
	C156.490692,430.021973 153.353882,423.233948 150.035416,416.052887 
	C144.146088,429.036346 138.636490,441.182678 133.372162,452.788239 
	C134.713760,452.788239 137.284531,452.788239 139.855301,452.788239 
	C139.411530,452.552094 138.967773,452.315948 138.524017,452.079803 
	C139.572021,449.211060 139.919647,444.626770 141.821793,443.850128 
	C145.212448,442.465851 149.992874,442.327545 153.307831,443.741455 
	C155.235031,444.563416 155.441345,449.420074 156.505356,452.719757 
	C159.458237,452.719757 163.490738,452.719757 167.158051,452.719757 
	C164.713943,447.570923 162.323730,442.535614 159.627518,436.809967 
M347.369019,453.006134 
	C349.640686,453.006134 351.912384,453.006134 354.455719,453.006134 
	C354.762482,450.761627 354.993500,449.071442 355.112427,448.201172 
	C349.969452,449.338318 345.039490,450.428375 340.001160,451.542358 
	C340.001160,439.279755 340.001160,428.317261 340.001160,417.179413 
	C336.907776,417.179413 333.284485,417.179413 329.614746,417.179413 
	C332.619751,422.077515 332.486908,448.532806 329.268433,453.006134 
	C335.120789,453.006134 340.763092,453.006134 347.369019,453.006134 
M125.014198,430.537842 
	C125.223778,426.072266 125.433357,421.606689 125.639450,417.215454 
	C122.440567,417.215454 118.701180,417.215454 115.574524,417.215454 
	C118.726616,424.869354 116.903496,432.855804 116.994484,440.571686 
	C117.084671,448.219879 119.320847,456.521027 112.060516,463.019653 
	C120.446785,462.767334 124.857315,458.532867 124.988113,451.014801 
	C125.101105,444.520172 125.013260,438.022034 125.014198,430.537842 
M382.578613,419.094696 
	C385.308258,419.466797 388.037903,419.838898 390.779419,420.212616 
	C390.779419,419.483154 390.779419,418.376251 390.779419,416.797729 
	C380.173737,416.797729 369.772308,416.797729 359.172913,416.797729 
	C359.172913,418.452972 359.172913,420.237793 359.172913,421.056030 
	C362.893677,420.235168 366.789032,419.375793 370.707916,418.511261 
	C372.725708,428.956482 371.764496,449.415192 369.282013,452.783752 
	C373.099487,452.783752 376.833099,452.783752 380.696228,452.783752 
	C380.174316,451.317261 379.373932,450.093628 379.357910,448.859772 
	C379.239044,439.708557 379.217010,430.554352 379.369751,421.404480 
	C379.382782,420.623840 380.885498,419.868073 382.578613,419.094696 
M68.666168,453.017883 
	C74.418808,453.017883 80.171448,453.017883 86.250069,453.017883 
	C86.556625,450.536896 86.798248,448.581512 86.881500,447.907715 
	C81.806801,449.171265 76.836304,450.408844 71.805847,451.661346 
	C71.805847,439.238586 71.805847,428.262085 71.805847,417.218109 
	C68.696083,417.218109 64.853928,417.218109 60.815098,417.218109 
	C64.069885,421.005005 64.272926,448.805359 61.150330,453.017883 
	C63.429245,453.017883 65.584282,453.017883 68.666168,453.017883 
M94.632729,417.033661 
	C94.470367,417.068848 94.295486,417.078186 94.150139,417.148499 
	C94.056419,417.193878 93.926949,417.353149 93.947594,417.419830 
	C94.636612,419.645294 95.871094,421.847656 95.947884,424.090302 
	C96.203545,431.557465 96.159927,439.041718 95.971832,446.512909 
	C95.917686,448.663483 94.988991,450.792023 94.480652,452.852112 
	C97.898109,452.852112 101.678612,452.852112 105.537590,452.852112 
	C103.331970,448.440460 103.252403,421.793274 105.451630,416.997772 
	C102.038063,416.997772 98.723389,416.997772 94.632729,417.033661 
M302.388336,227.109787 
	C302.780212,226.810059 303.504700,226.520309 303.514008,226.209122 
	C303.650635,221.645309 304.725739,216.698441 303.254120,212.697250 
	C302.654083,211.065811 296.477051,211.119629 292.846741,211.164413 
	C291.552917,211.180374 289.198303,213.415497 289.175507,214.671158 
	C288.935883,227.879135 287.179901,227.916382 300.617218,227.549194 
	C300.944458,227.540268 301.268982,227.432114 302.388336,227.109787 
M222.621307,150.244354 
	C220.746826,146.160339 210.447113,144.598633 207.817627,148.003998 
	C207.617798,148.262787 207.443787,148.551620 207.310196,148.849945 
	C203.853851,156.568741 207.793030,163.051895 215.914276,163.019302 
	C221.857483,162.995453 222.605988,162.232986 222.687149,156.067673 
	C222.708954,154.410492 222.688675,152.752762 222.621307,150.244354 
M213.726868,131.009888 
	C216.648911,130.358978 221.681061,130.330063 222.091187,128.938736 
	C223.249252,125.009926 223.089264,120.389160 222.157578,116.337975 
	C221.888046,115.165947 217.274399,114.551186 214.624466,114.456154 
	C208.205612,114.225952 207.715851,114.876366 207.699112,121.084236 
	C207.694611,122.750252 207.756256,124.418083 207.698120,126.081955 
	C207.572632,129.672943 209.207642,131.368225 213.726868,131.009888 
M304.346741,285.472351 
	C304.341888,276.772003 304.341888,276.772034 295.512604,276.827698 
	C294.847168,276.831879 294.180725,276.859863 293.516510,276.832825 
	C290.394714,276.705719 288.895203,278.162140 288.975006,281.316132 
	C289.038055,283.809967 288.849609,286.317749 289.048035,288.797333 
	C289.146332,290.026123 289.742554,292.177460 290.321655,292.249969 
	C294.218567,292.738220 298.246307,293.257965 302.057831,292.659729 
	C303.121429,292.492798 303.599762,288.596893 304.346741,285.472351 
M289.202606,257.923950 
	C293.001099,262.195404 297.901489,259.997803 302.205475,259.545105 
	C303.164093,259.444275 303.734070,254.826675 304.305481,252.249298 
	C304.551666,251.138931 304.293457,249.925568 304.355103,248.763809 
	C304.546021,245.165192 302.921204,243.824402 299.287018,243.762299 
	C288.968048,243.585922 288.969116,243.460922 288.985840,253.534302 
	C288.987793,254.699173 289.010284,255.864014 289.202606,257.923950 
z"/>
<path fill="#FDD31E" opacity="1.000000" stroke="none" 
	d="
M251.120514,396.620453 
	C241.672852,396.448486 240.203339,394.986481 240.203064,386.100983 
	C240.199905,281.111511 240.201004,176.122025 240.200989,71.132553 
	C240.200989,69.179520 240.200989,67.226486 240.200989,64.127182 
	C234.124878,68.620598 228.852646,72.495834 223.605560,76.404816 
	C212.795120,84.458389 201.935165,92.448410 191.264267,100.683159 
	C189.686356,101.900833 188.099152,104.303299 188.084641,106.169815 
	C187.881195,132.332230 187.948746,158.496765 187.962311,184.660797 
	C187.962646,185.289490 188.100159,185.918137 188.226486,186.998276 
	C194.166718,186.998276 199.955154,186.939148 205.741806,187.014771 
	C211.623093,187.091599 213.992462,189.415405 213.995560,195.148453 
	C214.019775,240.143921 214.024597,285.139404 214.004547,330.134857 
	C214.001953,335.971649 212.189270,338.014496 206.390366,338.235535 
	C200.903641,338.444702 195.400055,338.179413 189.903870,338.177826 
	C154.578339,338.167603 119.252815,338.178680 83.927284,338.168152 
	C74.815590,338.165405 72.332115,335.946228 72.215477,326.688110 
	C72.032890,312.194641 72.224525,297.696747 72.213669,283.200775 
	C72.168983,223.541275 72.106560,163.881775 72.059227,104.222260 
	C72.058037,102.723953 72.135567,101.224525 72.211105,99.727379 
	C72.589172,92.233444 75.216545,89.510796 82.714699,89.417664 
	C93.378662,89.285187 104.045471,89.379929 114.711060,89.379890 
	C120.710449,89.379868 126.713501,89.252602 132.708328,89.419174 
	C140.838821,89.645103 143.213943,92.881081 142.996872,102.966766 
	C142.845413,110.004135 139.680130,113.029442 132.427795,113.034279 
	C120.469711,113.042259 108.511604,113.036438 96.295471,113.036438 
	C96.295471,180.379333 96.295471,247.287659 96.295471,314.511871 
	C110.662918,314.511871 124.918839,314.511871 139.984390,314.511871 
	C139.984390,312.694824 139.984375,310.785919 139.984390,308.877045 
	C139.984573,271.380798 139.981186,233.884567 139.988037,196.388321 
	C139.989395,188.973740 141.959091,187.037491 149.504898,187.001450 
	C154.142715,186.979279 158.780746,186.997330 163.994476,186.997330 
	C163.994476,184.904312 163.994476,183.133392 163.994476,181.362488 
	C163.994476,154.198547 164.210754,127.031601 163.832825,99.872917 
	C163.745239,93.578476 165.957397,89.598541 170.743637,86.086655 
	C186.576004,74.469727 202.272842,62.668079 218.019882,50.934883 
	C227.229034,44.073086 236.403381,37.163998 245.654587,30.359402 
	C250.637039,26.694609 253.271057,27.522663 257.486969,32.149784 
	C262.652374,37.819016 264.225830,44.157883 264.138458,51.675503 
	C263.846069,76.836243 264.095581,102.002907 263.943817,127.166138 
	C263.924377,130.392258 264.912537,132.230057 267.580536,133.971283 
	C294.596344,151.602585 321.473511,169.446747 348.531433,187.012726 
	C353.814148,190.442276 356.448029,194.325745 354.600403,200.680038 
	C354.150269,202.228073 354.378815,203.987701 354.378174,205.650055 
	C354.367828,232.813995 354.370789,259.977936 354.370758,287.141876 
	C354.370758,288.931488 354.370758,290.721100 354.370758,292.754242 
	C346.473755,292.754242 339.036682,292.754242 330.895660,292.754242 
	C330.895660,291.006439 330.895660,289.253510 330.895660,287.500580 
	C330.895599,261.169891 330.835541,234.838882 330.973145,208.508926 
	C330.989929,205.296021 330.040833,203.459564 327.326111,201.686035 
	C306.461761,188.055191 285.717529,174.240402 264.403595,160.130234 
	C264.403595,229.572754 264.403595,298.426971 264.403595,367.875763 
	C266.567230,366.377747 268.697662,364.995331 270.730072,363.481232 
	C289.816071,349.262817 309.162048,335.370544 327.793457,320.578552 
	C333.507812,316.041809 338.902344,314.599548 345.803101,314.712860 
	C365.607239,315.038025 385.420135,314.827454 405.598022,314.827454 
	C405.598022,247.950409 405.598022,181.381439 405.598022,114.036469 
	C404.044708,114.036469 402.297821,114.036484 400.550934,114.036469 
	C366.387695,114.036240 332.224457,114.041107 298.061218,114.031677 
	C290.776581,114.029663 289.007904,112.224449 288.984711,104.894646 
	C288.937561,89.997192 288.937592,89.997177 303.997406,89.997192 
	C342.826843,89.997223 381.656281,89.994385 420.485718,89.999878 
	C427.792816,90.000908 429.946838,92.135651 429.941895,99.479393 
	C429.895142,168.637650 429.828339,237.795883 429.785339,306.954132 
	C429.780792,314.285339 429.928009,321.616577 429.938232,328.947876 
	C429.948669,336.438385 428.072601,338.384583 420.484772,338.378113 
	C396.822571,338.357880 373.159454,338.125153 349.499512,338.318085 
	C346.318420,338.344025 342.641876,339.641541 340.061035,341.532532 
	C317.240662,358.253143 294.467255,375.047455 272.046753,392.296783 
	C266.950928,396.217316 261.971466,397.284668 256.055756,396.633331 
	C254.575302,396.470337 253.060822,396.616455 251.120514,396.620453 
M190.106674,234.500046 
	C190.106674,226.755814 190.106674,219.011581 190.106674,211.361923 
	C180.958160,211.361923 172.552521,211.361923 164.149994,211.361923 
	C164.149994,245.906540 164.149994,280.124695 164.149994,314.553406 
	C172.832336,314.553406 181.227173,314.553406 190.106674,314.553406 
	C190.106674,288.021301 190.106674,261.760681 190.106674,234.500046 
z"/>
<path fill="#FAD11E" opacity="1.000000" stroke="none" 
	d="
M193.880188,436.151855 
	C190.270691,436.151855 187.137955,436.151855 184.001205,436.151855 
	C184.001205,441.941254 184.001205,447.246948 184.001205,452.780975 
	C181.077332,452.780975 177.453827,452.780975 174.774719,452.780975 
	C176.174133,441.063416 176.189011,429.285553 174.596420,417.257263 
	C177.293457,417.257263 180.959625,417.257263 183.939621,417.257263 
	C183.657196,422.737396 183.381058,428.095825 183.090408,433.735748 
	C188.884384,433.735748 194.146042,433.735748 200.306992,433.735748 
	C199.883209,428.070526 199.472504,422.580261 199.061935,417.091492 
	C201.722458,417.091492 205.706345,417.091492 209.724243,417.091492 
	C206.754654,421.227081 207.024719,449.177887 210.250275,452.767273 
	C205.987183,452.767273 201.932373,452.767273 199.084595,452.767273 
	C199.490799,447.562042 199.908386,442.210815 200.381195,436.151886 
	C197.892685,436.151886 196.124832,436.151886 193.880188,436.151855 
z"/>
<path fill="#F2CB1F" opacity="1.000000" stroke="none" 
	d="
M411.747620,453.400879 
	C400.949524,451.035706 395.793396,444.681976 395.986969,434.395203 
	C396.169891,424.674286 401.893799,418.323212 412.056519,416.564819 
	C427.575104,413.879822 438.482117,424.010071 436.129669,438.923615 
	C435.028229,445.906250 430.141205,451.417694 423.010101,452.878021 
	C419.498871,453.597107 415.783752,453.320465 411.747620,453.400879 
M404.879059,439.074158 
	C405.160248,440.366028 405.324371,441.697205 405.742493,442.943115 
	C407.715881,448.822815 411.287231,451.573486 416.593414,451.406708 
	C421.536255,451.251343 425.841187,448.304108 426.706970,442.726685 
	C427.523376,437.466919 427.421814,431.825867 426.436768,426.594971 
	C425.520935,421.731567 421.778473,418.648926 416.332001,418.614899 
	C410.914886,418.581024 407.390350,421.492645 406.075836,426.409851 
	C405.068298,430.178589 405.176819,434.245667 404.879059,439.074158 
z"/>
<path fill="#F7CF1E" opacity="1.000000" stroke="none" 
	d="
M463.634216,448.358704 
	C461.199524,443.824310 458.984985,439.583130 456.797974,435.394714 
	C462.636383,433.178741 464.656219,429.797333 463.233093,424.194794 
	C461.977783,419.252899 458.384979,419.095245 454.647980,419.370667 
	C454.647980,430.731415 454.647980,441.719910 454.647980,452.839752 
	C451.653229,452.839752 447.873810,452.839752 444.111542,452.839752 
	C447.017273,448.520203 446.789490,421.082733 443.611023,417.061951 
	C449.737244,417.061951 455.688904,416.852020 461.618713,417.122162 
	C467.324371,417.382050 471.048370,420.480377 471.855560,424.955872 
	C472.731689,429.813599 470.484161,433.638214 465.069916,436.432739 
	C469.143677,441.802307 473.208221,447.159729 477.542084,452.872131 
	C472.436066,453.172913 467.514435,453.281311 463.634216,448.358704 
z"/>
<path fill="#F7CF1E" opacity="1.000000" stroke="none" 
	d="
M220.986801,439.955444 
	C220.218613,432.091675 222.713257,424.399170 219.146988,417.058441 
	C224.721436,417.058441 230.649139,416.855438 236.556335,417.116486 
	C242.271896,417.369080 245.999847,420.420563 246.841782,424.877350 
	C247.755219,429.712616 245.505646,433.608215 240.079361,436.424469 
	C244.144653,441.784576 248.191574,447.120422 252.137146,452.322693 
	C245.582245,454.282166 240.446716,452.158081 237.150116,445.778961 
	C235.338181,442.272705 233.547501,438.755493 231.780075,435.307312 
	C237.428055,433.355225 239.329666,430.510437 238.442566,425.083527 
	C237.589890,419.867218 234.107834,418.941162 229.664215,419.392487 
	C228.052322,425.358490 228.615402,449.118103 230.519455,452.854736 
	C226.652283,452.854736 222.864975,452.854736 220.030304,452.854736 
	C220.346130,448.758362 220.666458,444.603363 220.986801,439.955444 
z"/>
<path fill="#F5CD1E" opacity="1.000000" stroke="none" 
	d="
M46.152878,450.617249 
	C48.956440,449.207855 51.352535,447.875763 54.260258,446.259277 
	C53.742168,448.570282 53.266842,450.690582 52.775814,452.880890 
	C44.322250,452.880890 36.181484,452.880890 28.027431,452.880890 
	C31.050697,448.583649 30.906631,420.931183 27.457850,416.850708 
	C35.732105,416.850708 43.614468,416.850708 51.761978,416.850708 
	C51.761978,418.365021 51.761978,420.132874 51.761978,420.935699 
	C47.630440,420.190521 43.234417,419.397644 38.307060,418.508911 
	C38.307060,424.185394 38.307060,428.891449 38.307060,434.604431 
	C42.202984,433.878967 45.823929,433.204712 49.417587,432.535553 
	C49.417587,433.812653 49.417587,436.349945 49.417587,438.163147 
	C46.050751,437.408020 42.432327,436.596466 38.277573,435.664642 
	C38.277573,441.199219 38.277573,445.743500 38.277573,450.694580 
	C40.857536,450.694580 43.301472,450.694580 46.152878,450.617249 
z"/>
<path fill="#F5CE1E" opacity="1.000000" stroke="none" 
	d="
M260.207458,448.316132 
	C260.121460,438.415924 260.066284,428.934723 259.841522,419.457581 
	C259.824280,418.731384 258.609100,418.033600 257.550537,416.890411 
	C265.894012,416.890411 273.815460,416.890411 281.995361,416.890411 
	C281.995361,418.572571 281.995361,420.516785 281.995361,423.159637 
	C278.530609,417.214447 273.332672,419.831604 268.433411,419.080933 
	C268.433411,424.209473 268.433411,428.916443 268.433411,434.155579 
	C271.817902,433.977417 275.047821,433.807404 278.737244,433.613190 
	C278.812592,434.490570 278.930115,435.859680 279.040680,437.147430 
	C275.451385,436.811127 272.125031,436.499451 268.412842,436.151642 
	C268.412842,441.253326 268.412842,445.790710 268.412842,451.832062 
	C273.948090,450.408661 278.940430,449.124878 283.929138,447.842010 
	C283.810242,448.642242 283.512421,450.646637 283.191589,452.806213 
	C274.552582,452.806213 266.281860,452.806213 258.314209,452.806213 
	C258.922668,451.489899 259.559143,450.113037 260.207458,448.316132 
z"/>
<path fill="#F4CC1E" opacity="1.000000" stroke="none" 
	d="
M300.444397,428.374817 
	C302.275482,424.268219 303.920105,420.492493 305.948517,415.835632 
	C311.802795,428.505432 317.375244,440.565369 322.974670,452.683716 
	C319.535553,452.683716 315.518433,452.683716 312.453186,452.683716 
	C311.451782,449.468201 311.289215,444.599304 309.377319,443.771698 
	C306.068146,442.339264 301.222168,442.376862 297.906738,443.825409 
	C295.942719,444.683533 295.676849,449.428253 294.511902,452.819946 
	C293.070038,452.819946 290.485046,452.819946 288.298370,452.819946 
	C294.191101,445.767853 296.175995,436.695038 300.444397,428.374817 
M303.561310,440.836426 
	C304.995453,440.762268 306.429596,440.688110 308.659058,440.572845 
	C307.017670,436.447601 305.575104,432.822021 303.729370,428.183228 
	C301.758514,433.038177 300.296112,436.640656 298.691803,440.592651 
	C300.456940,440.699738 301.581970,440.767975 303.561310,440.836426 
z"/>
<path fill="#F4CC1E" opacity="1.000000" stroke="none" 
	d="
M159.780518,437.155151 
	C162.323730,442.535614 164.713943,447.570923 167.158051,452.719757 
	C163.490738,452.719757 159.458237,452.719757 156.505356,452.719757 
	C155.441345,449.420074 155.235031,444.563416 153.307831,443.741455 
	C149.992874,442.327545 145.212448,442.465851 141.821793,443.850128 
	C139.919647,444.626770 139.572021,449.211060 138.524017,452.079803 
	C138.967773,452.315948 139.411530,452.552094 139.855301,452.788239 
	C137.284531,452.788239 134.713760,452.788239 133.372162,452.788239 
	C138.636490,441.182678 144.146088,429.036346 150.035416,416.052887 
	C153.353882,423.233948 156.490692,430.021973 159.780518,437.155151 
M146.152908,431.917480 
	C145.041351,434.722900 143.929794,437.528351 142.712296,440.601135 
	C146.311218,440.601135 149.072388,440.601135 152.668137,440.601135 
	C151.025787,436.472382 149.580063,432.837891 147.845520,428.477325 
	C147.056473,430.082367 146.765533,430.674164 146.152908,431.917480 
z"/>
<path fill="#FBD21E" opacity="1.000000" stroke="none" 
	d="
M346.887207,453.006134 
	C340.763092,453.006134 335.120789,453.006134 329.268433,453.006134 
	C332.486908,448.532806 332.619751,422.077515 329.614746,417.179413 
	C333.284485,417.179413 336.907776,417.179413 340.001160,417.179413 
	C340.001160,428.317261 340.001160,439.279755 340.001160,451.542358 
	C345.039490,450.428375 349.969452,449.338318 355.112427,448.201172 
	C354.993500,449.071442 354.762482,450.761627 354.455719,453.006134 
	C351.912384,453.006134 349.640686,453.006134 346.887207,453.006134 
z"/>
<path fill="#F7CF1E" opacity="1.000000" stroke="none" 
	d="
M125.014198,431.031647 
	C125.013260,438.022034 125.101105,444.520172 124.988113,451.014801 
	C124.857315,458.532867 120.446785,462.767334 112.060516,463.019653 
	C119.320847,456.521027 117.084671,448.219879 116.994484,440.571686 
	C116.903496,432.855804 118.726616,424.869354 115.574524,417.215454 
	C118.701180,417.215454 122.440567,417.215454 125.639450,417.215454 
	C125.433357,421.606689 125.223778,426.072266 125.014198,431.031647 
z"/>
<path fill="#FCD31E" opacity="1.000000" stroke="none" 
	d="
M382.137390,419.097717 
	C380.885498,419.868073 379.382782,420.623840 379.369751,421.404480 
	C379.217010,430.554352 379.239044,439.708557 379.357910,448.859772 
	C379.373932,450.093628 380.174316,451.317261 380.696228,452.783752 
	C376.833099,452.783752 373.099487,452.783752 369.282013,452.783752 
	C371.764496,449.415192 372.725708,428.956482 370.707916,418.511261 
	C366.789032,419.375793 362.893677,420.235168 359.172913,421.056030 
	C359.172913,420.237793 359.172913,418.452972 359.172913,416.797729 
	C369.772308,416.797729 380.173737,416.797729 390.779419,416.797729 
	C390.779419,418.376251 390.779419,419.483154 390.779419,420.212616 
	C388.037903,419.838898 385.308258,419.466797 382.137390,419.097717 
z"/>
<path fill="#F6CE1E" opacity="1.000000" stroke="none" 
	d="
M68.202744,453.017883 
	C65.584282,453.017883 63.429245,453.017883 61.150330,453.017883 
	C64.272926,448.805359 64.069885,421.005005 60.815098,417.218109 
	C64.853928,417.218109 68.696083,417.218109 71.805847,417.218109 
	C71.805847,428.262085 71.805847,439.238586 71.805847,451.661346 
	C76.836304,450.408844 81.806801,449.171265 86.881500,447.907715 
	C86.798248,448.581512 86.556625,450.536896 86.250069,453.017883 
	C80.171448,453.017883 74.418808,453.017883 68.202744,453.017883 
z"/>
<path fill="#F8D01E" opacity="1.000000" stroke="none" 
	d="
M95.020721,417.015717 
	C98.723389,416.997772 102.038063,416.997772 105.451630,416.997772 
	C103.252403,421.793274 103.331970,448.440460 105.537590,452.852112 
	C101.678612,452.852112 97.898109,452.852112 94.480652,452.852112 
	C94.988991,450.792023 95.917686,448.663483 95.971832,446.512909 
	C96.159927,439.041718 96.203545,431.557465 95.947884,424.090302 
	C95.871094,421.847656 94.636612,419.645294 93.947594,417.419830 
	C93.926949,417.353149 94.056419,417.193878 94.150139,417.148499 
	C94.295486,417.078186 94.470367,417.068848 95.020721,417.015717 
z"/>
<path fill="#FAD11E" opacity="1.000000" stroke="none" 
	d="
M301.991577,227.240021 
	C301.268982,227.432114 300.944458,227.540268 300.617218,227.549194 
	C287.179901,227.916382 288.935883,227.879135 289.175507,214.671158 
	C289.198303,213.415497 291.552917,211.180374 292.846741,211.164413 
	C296.477051,211.119629 302.654083,211.065811 303.254120,212.697250 
	C304.725739,216.698441 303.650635,221.645309 303.514008,226.209122 
	C303.504700,226.520309 302.780212,226.810059 301.991577,227.240021 
z"/>
<path fill="#F5CD1E" opacity="1.000000" stroke="none" 
	d="
M222.654510,150.669815 
	C222.688675,152.752762 222.708954,154.410492 222.687149,156.067673 
	C222.605988,162.232986 221.857483,162.995453 215.914276,163.019302 
	C207.793030,163.051895 203.853851,156.568741 207.310196,148.849945 
	C207.443787,148.551620 207.617798,148.262787 207.817627,148.003998 
	C210.447113,144.598633 220.746826,146.160339 222.654510,150.669815 
z"/>
<path fill="#FAD11E" opacity="1.000000" stroke="none" 
	d="
M213.283234,131.009705 
	C209.207642,131.368225 207.572632,129.672943 207.698120,126.081955 
	C207.756256,124.418083 207.694611,122.750252 207.699112,121.084236 
	C207.715851,114.876366 208.205612,114.225952 214.624466,114.456154 
	C217.274399,114.551186 221.888046,115.165947 222.157578,116.337975 
	C223.089264,120.389160 223.249252,125.009926 222.091187,128.938736 
	C221.681061,130.330063 216.648911,130.358978 213.283234,131.009705 
z"/>
<path fill="#FDD31E" opacity="1.000000" stroke="none" 
	d="
M304.346680,285.941986 
	C303.599762,288.596893 303.121429,292.492798 302.057831,292.659729 
	C298.246307,293.257965 294.218567,292.738220 290.321655,292.249969 
	C289.742554,292.177460 289.146332,290.026123 289.048035,288.797333 
	C288.849609,286.317749 289.038055,283.809967 288.975006,281.316132 
	C288.895203,278.162140 290.394714,276.705719 293.516510,276.832825 
	C294.180725,276.859863 294.847168,276.831879 295.512604,276.827698 
	C304.341888,276.772034 304.341888,276.772003 304.346680,285.941986 
z"/>
<path fill="#FDD31E" opacity="1.000000" stroke="none" 
	d="
M289.112915,257.476410 
	C289.010284,255.864014 288.987793,254.699173 288.985840,253.534302 
	C288.969116,243.460922 288.968048,243.585922 299.287018,243.762299 
	C302.921204,243.824402 304.546021,245.165192 304.355103,248.763809 
	C304.293457,249.925568 304.551666,251.138931 304.305481,252.249298 
	C303.734070,254.826675 303.164093,259.444275 302.205475,259.545105 
	C297.901489,259.997803 293.001099,262.195404 289.112915,257.476410 
z"/>
<path fill="#162028" opacity="1.000000" stroke="none" 
	d="
M190.106674,235.000031 
	C190.106674,261.760681 190.106674,288.021301 190.106674,314.553406 
	C181.227173,314.553406 172.832336,314.553406 164.149994,314.553406 
	C164.149994,280.124695 164.149994,245.906540 164.149994,211.361923 
	C172.552521,211.361923 180.958160,211.361923 190.106674,211.361923 
	C190.106674,219.011581 190.106674,226.755814 190.106674,235.000031 
z"/>
<path fill="#182128" opacity="1.000000" stroke="none" 
	d="
M404.834015,438.627106 
	C405.176819,434.245667 405.068298,430.178589 406.075836,426.409851 
	C407.390350,421.492645 410.914886,418.581024 416.332001,418.614899 
	C421.778473,418.648926 425.520935,421.731567 426.436768,426.594971 
	C427.421814,431.825867 427.523376,437.466919 426.706970,442.726685 
	C425.841187,448.304108 421.536255,451.251343 416.593414,451.406708 
	C411.287231,451.573486 407.715881,448.822815 405.742493,442.943115 
	C405.324371,441.697205 405.160248,440.366028 404.834015,438.627106 
z"/>
<path fill="#272D27" opacity="1.000000" stroke="none" 
	d="
M303.134155,440.836304 
	C301.581970,440.767975 300.456940,440.699738 298.691803,440.592651 
	C300.296112,436.640656 301.758514,433.038177 303.729370,428.183228 
	C305.575104,432.822021 307.017670,436.447601 308.659058,440.572845 
	C306.429596,440.688110 304.995453,440.762268 303.134155,440.836304 
z"/>
<path fill="#272D27" opacity="1.000000" stroke="none" 
	d="
M146.313751,431.591736 
	C146.765533,430.674164 147.056473,430.082367 147.845520,428.477325 
	C149.580063,432.837891 151.025787,436.472382 152.668137,440.601135 
	C149.072388,440.601135 146.311218,440.601135 142.712296,440.601135 
	C143.929794,437.528351 145.041351,434.722900 146.313751,431.591736 
z"/>
</svg>